<svg width="46" height="46" fill="none" xmlns="http://www.w3.org/2000/svg"><path d="M7.188.5h31.625A6.688 6.688 0 0145.5 7.188v31.625a6.688 6.688 0 01-6.688 6.687H7.189A6.688 6.688 0 01.5 38.812V7.189A6.688 6.688 0 017.188.5z" fill="#09A9FA" stroke="#fff"/><path d="M16.675 34.5h-4.888V19.119h4.888V34.5zm-2.444-17.538c-1.581 0-2.731-1.15-2.731-2.73 0-1.582 1.294-2.732 2.731-2.732 1.582 0 2.731 1.15 2.731 2.731 0 1.582-1.15 2.731-2.73 2.731zM34.5 34.5h-4.887v-8.337c0-2.444-1.007-3.163-2.444-3.163-1.438 0-2.875 1.15-2.875 3.306V34.5h-4.888V19.119h4.6v2.156c.431-1.006 2.157-2.587 4.6-2.587 2.731 0 5.606 1.58 5.606 6.325V34.5h.288z" fill="#fff"/></svg>