<svg width="45" height="46" fill="none" xmlns="http://www.w3.org/2000/svg"><path d="M7.031.5H37.97c3.596 0 6.53 2.984 6.53 6.688v31.625c0 3.703-2.934 6.687-6.531 6.687H7.03C3.434 45.5.5 42.516.5 38.812V7.189C.5 3.483 3.434.5 7.031.5z" fill="#09A9FA" stroke="#fff"/><path d="M11.39 22.58c6.04-2.69 10.068-4.463 12.083-5.32 5.754-2.446 6.95-2.87 7.728-2.885.172-.003.555.04.803.246.21.174.268.41.295.574.028.165.062.54.035.834-.312 3.349-1.661 11.475-2.348 15.226-.29 1.587-.862 2.12-1.415 2.171-1.204.114-2.117-.812-3.283-1.593-1.823-1.222-2.853-1.983-4.623-3.175-2.046-1.378-.72-2.135.446-3.373.305-.324 5.606-5.253 5.709-5.7.013-.056.025-.264-.096-.374-.122-.11-.3-.073-.43-.043-.182.043-3.095 2.01-8.739 5.905-.826.58-1.575.863-2.246.848-.74-.016-2.163-.427-3.22-.779-1.298-.431-2.33-.659-2.24-1.391.047-.382.56-.772 1.541-1.17z" fill="#fff"/></svg>