<svg width="46" height="46" fill="none" xmlns="http://www.w3.org/2000/svg"><path d="M7.188.5h31.625A6.688 6.688 0 0145.5 7.188v31.625a6.688 6.688 0 01-6.688 6.687H7.189A6.688 6.688 0 01.5 38.812V7.189A6.688 6.688 0 017.188.5z" fill="#09A9FA" stroke="#fff"/><path fill-rule="evenodd" clip-rule="evenodd" d="M31.05 14.806C28.894 12.65 26.019 11.5 23 11.5c-6.325 0-11.5 5.175-11.5 11.5 0 2.012.575 4.025 1.581 5.75L11.5 34.5l6.038-1.581c1.724.862 3.593 1.437 5.462 1.437 6.325 0 11.5-5.175 11.5-11.5 0-3.019-1.294-5.894-3.45-8.05zM23 32.487c-1.725 0-3.45-.43-4.887-1.293l-.288-.144-3.594 1.006 1.007-3.45-.288-.431c-1.006-1.581-1.438-3.306-1.438-5.031 0-5.175 4.313-9.488 9.488-9.488 2.587 0 4.887 1.006 6.756 2.731 1.869 1.87 2.731 4.17 2.731 6.757 0 5.031-4.168 9.343-9.487 9.343zm5.175-7.187c-.288-.144-1.725-.863-2.012-.863-.288-.143-.432-.143-.576.144-.143.288-.718.863-.862 1.15-.144.144-.288.144-.575.144-.287-.144-1.15-.431-2.3-1.438-.863-.718-1.438-1.725-1.581-2.012-.144-.288 0-.431.144-.575l.43-.431c.145-.144.145-.288.288-.431.144-.144 0-.288 0-.432 0-.143-.575-1.581-.862-2.156-.144-.431-.431-.431-.575-.431h-.575c-.144 0-.431 0-.719.287-.287.288-1.006 1.006-1.006 2.444s1.006 2.731 1.15 3.019c.143.143 2.012 3.162 4.887 4.312 2.444 1.007 2.875.719 3.45.719.575 0 1.725-.719 1.869-1.294.288-.718.288-1.293.144-1.293-.144-.72-.431-.72-.719-.863z" fill="#fff"/></svg>